<svg width="74" height="75" viewBox="0 0 74 75" fill="none" xmlns="http://www.w3.org/2000/svg">
<path d="M66.8859 5.11364H55.8338V1.70455C55.8338 0.767045 55.0687 0 54.1335 0C53.1983 0 52.4332 0.767045 52.4332 1.70455V5.11364H21.8273V1.70455C21.8273 0.767045 21.0622 0 20.127 0C19.1918 0 18.4267 0.767045 18.4267 1.70455V5.11364H7.37455C3.63383 5.11364 0.573242 8.18182 0.573242 11.9318V68.1818C0.573242 71.9318 3.63383 75 7.37455 75H66.8859C70.6267 75 73.6872 71.9318 73.6872 68.1818V11.9318C73.6872 8.18182 70.6267 5.11364 66.8859 5.11364ZM7.37455 8.52273H18.4267V11.9318C18.4267 12.8693 19.1918 13.6364 20.127 13.6364C21.0622 13.6364 21.8273 12.8693 21.8273 11.9318V8.52273H52.4332V11.9318C52.4332 12.8693 53.1983 13.6364 54.1335 13.6364C55.0687 13.6364 55.8338 12.8693 55.8338 11.9318V8.52273H66.8859C68.7563 8.52273 70.2866 10.0568 70.2866 11.9318V18.75H3.97389V11.9318C3.97389 10.0568 5.50419 8.52273 7.37455 8.52273ZM66.8859 71.5909H7.37455C5.50419 71.5909 3.97389 70.0568 3.97389 68.1818V22.1591H70.2866V68.1818C70.2866 70.0568 68.7563 71.5909 66.8859 71.5909ZM22.6775 51.1364H10.7752C9.84002 51.1364 9.07487 51.9034 9.07487 52.8409V64.7727C9.07487 65.7102 9.84002 66.4773 10.7752 66.4773H22.6775C23.6127 66.4773 24.3778 65.7102 24.3778 64.7727V52.8409C24.3778 51.9034 23.6127 51.1364 22.6775 51.1364ZM20.9771 63.0682H12.4755V54.5455H20.9771V63.0682ZM43.0814 51.1364H31.1791C30.2439 51.1364 29.4788 51.9034 29.4788 52.8409V64.7727C29.4788 65.7102 30.2439 66.4773 31.1791 66.4773H43.0814C44.0166 66.4773 44.7817 65.7102 44.7817 64.7727V52.8409C44.7817 51.9034 44.0166 51.1364 43.0814 51.1364ZM41.3811 63.0682H32.8794V54.5455H41.3811V63.0682ZM63.4853 51.1364H51.583C50.6478 51.1364 49.8827 51.9034 49.8827 52.8409V64.7727C49.8827 65.7102 50.6478 66.4773 51.583 66.4773H63.4853C64.4205 66.4773 65.1856 65.7102 65.1856 64.7727V52.8409C65.1856 51.9034 64.4205 51.1364 63.4853 51.1364ZM61.785 63.0682H53.2833V54.5455H61.785V63.0682ZM22.6775 30.6818H10.7752C9.84002 30.6818 9.07487 31.4489 9.07487 32.3864V44.3182C9.07487 45.2557 9.84002 46.0227 10.7752 46.0227H22.6775C23.6127 46.0227 24.3778 45.2557 24.3778 44.3182V32.3864C24.3778 31.4489 23.6127 30.6818 22.6775 30.6818ZM20.9771 42.6136H12.4755V34.0909H20.9771V42.6136ZM43.0814 30.6818H31.1791C30.2439 30.6818 29.4788 31.4489 29.4788 32.3864V44.3182C29.4788 45.2557 30.2439 46.0227 31.1791 46.0227H43.0814C44.0166 46.0227 44.7817 45.2557 44.7817 44.3182V32.3864C44.7817 31.4489 44.0166 30.6818 43.0814 30.6818ZM41.3811 42.6136H32.8794V34.0909H41.3811V42.6136ZM63.4853 30.6818H51.583C50.6478 30.6818 49.8827 31.4489 49.8827 32.3864V44.3182C49.8827 45.2557 50.6478 46.0227 51.583 46.0227H63.4853C64.4205 46.0227 65.1856 45.2557 65.1856 44.3182V32.3864C65.1856 31.4489 64.4205 30.6818 63.4853 30.6818ZM61.785 42.6136H53.2833V34.0909H61.785V42.6136Z" fill="#183C67"/>
</svg>
