<svg width="95" height="83" viewBox="0 0 95 83" fill="none" xmlns="http://www.w3.org/2000/svg">
<path d="M6.21152 62.5487V67.239H14.4259V70.535H6.21152V77H2.10431V59.2528H15.5161V62.5487H6.21152ZM32.6719 73.7041V77H18.9305V59.2528H32.3423V62.5487H23.0123V66.4024H31.2521V69.5969H23.0123V73.7041H32.6719ZM53.3887 59.2528L45.7067 77H41.6502L33.9936 59.2528H38.4304L43.8306 71.9294L49.3069 59.2528H53.3887Z" fill="#FFBD63"/>
<path d="M15.115 11.7588V46H7.19065V18.1179H0.342412V11.7588H15.115ZM36.961 46.587C34.1239 46.587 31.5965 45.8859 29.379 44.4836C27.1615 43.0813 25.4168 41.0595 24.145 38.418C22.9058 35.7439 22.2862 32.5644 22.2862 28.8794C22.2862 25.1944 22.9058 22.0312 24.145 19.3897C25.4168 16.7156 27.1615 14.6775 29.379 13.2752C31.5965 11.8729 34.1239 11.1718 36.961 11.1718C39.7981 11.1718 42.3255 11.8729 44.543 13.2752C46.7605 14.6775 48.4889 16.7156 49.7281 19.3897C50.9999 22.0312 51.6358 25.1944 51.6358 28.8794C51.6358 32.5644 50.9999 35.7439 49.7281 38.418C48.4889 41.0595 46.7605 43.0813 44.543 44.4836C42.3255 45.8859 39.7981 46.587 36.961 46.587ZM36.961 39.8855C39.0481 39.8855 40.6786 38.9887 41.8526 37.1951C43.0592 35.4015 43.6625 32.6296 43.6625 28.8794C43.6625 25.1292 43.0592 22.3573 41.8526 20.5637C40.6786 18.7701 39.0481 17.8733 36.961 17.8733C34.9065 17.8733 33.276 18.7701 32.0694 20.5637C30.8954 22.3573 30.3084 25.1292 30.3084 28.8794C30.3084 32.6296 30.8954 35.4015 32.0694 37.1951C33.276 38.9887 34.9065 39.8855 36.961 39.8855Z" fill="#FFBD63"/>
<path d="M70.9486 26.8231L67 26.8231L67 10.9989L70.1409 10.9989L77.7689 19.0755C78.5865 19.933 79.2845 20.5114 79.8628 20.8105C80.4611 21.1096 81.0494 21.2592 81.6277 21.2592C82.4653 21.2592 83.1035 20.97 83.5422 20.3917C84.0009 19.8333 84.2302 19.0057 84.2302 17.9089C84.2302 16.9915 84.0507 16.1639 83.6918 15.4261C83.3527 14.6882 82.8342 14.07 82.1363 13.5714L84.4097 10.0416C85.6262 10.8593 86.5734 11.986 87.2515 13.4219C87.9495 14.8577 88.2984 16.503 88.2984 18.3576C88.2984 19.9131 88.0392 21.2692 87.5207 22.4258C87.0221 23.6024 86.3042 24.5098 85.3669 25.148C84.4496 25.8061 83.3627 26.1351 82.1063 26.1351C80.9696 26.1351 79.9027 25.8958 78.9056 25.4172C77.9085 24.9386 76.7718 24.0113 75.4954 22.6352L70.9486 17.8192L70.9486 26.8231ZM66.641 38.4861C66.641 36.7512 67.0698 35.2056 67.9273 33.8495C68.7848 32.4935 70.0213 31.4265 71.6366 30.6488C73.2719 29.891 75.2163 29.5121 77.4697 29.5121C79.7232 29.5121 81.6576 29.891 83.273 30.6488C84.9082 31.4265 86.1546 32.4935 87.0122 33.8495C87.8697 35.2056 88.2984 36.7512 88.2984 38.4861C88.2984 40.2211 87.8697 41.7667 87.0122 43.1227C86.1546 44.4788 84.9082 45.5358 83.273 46.2936C81.6576 47.0713 79.7232 47.4602 77.4697 47.4602C75.2163 47.4602 73.2719 47.0713 71.6366 46.2936C70.0213 45.5358 68.7848 44.4788 67.9273 43.1227C67.0698 41.7667 66.641 40.2211 66.641 38.4861ZM70.7392 38.4861C70.7392 39.7625 71.2876 40.7596 72.3844 41.4775C73.4813 42.2154 75.1764 42.5843 77.4697 42.5843C79.7631 42.5843 81.4582 42.2154 82.555 41.4775C83.6519 40.7596 84.2003 39.7625 84.2003 38.4861C84.2003 37.2298 83.6519 36.2327 82.555 35.4948C81.4582 34.7769 79.7631 34.4179 77.4697 34.4179C75.1764 34.4179 73.4813 34.7769 72.3844 35.4948C71.2876 36.2327 70.7392 37.2298 70.7392 38.4861ZM70.9486 66.0321L67 66.0321L67 50.2078L70.1409 50.2078L77.7689 58.2845C78.5865 59.142 79.2845 59.7203 79.8628 60.0195C80.4611 60.3186 81.0494 60.4682 81.6277 60.4682C82.4653 60.4682 83.1035 60.179 83.5422 59.6007C84.0009 59.0423 84.2302 58.2147 84.2302 57.1178C84.2302 56.2005 84.0507 55.3729 83.6918 54.635C83.3527 53.8971 82.8342 53.2789 82.1363 52.7804L84.4097 49.2506C85.6262 50.0682 86.5734 51.195 87.2515 52.6308C87.9494 54.0667 88.2984 55.7119 88.2984 57.5665C88.2984 59.122 88.0392 60.4781 87.5207 61.6348C87.0221 62.8114 86.3042 63.7188 85.3669 64.3569C84.4496 65.015 83.3627 65.3441 82.1063 65.3441C80.9696 65.3441 79.9027 65.1048 78.9056 64.6261C77.9085 64.1475 76.7718 63.2202 75.4954 61.8442L70.9486 57.0281L70.9486 66.0321ZM87.9395 76.8561L67 76.8561L67 72.0101L84.0507 72.0101L84.0507 67.8222L87.9395 67.8222L87.9395 76.8561Z" fill="white"/>
</svg>
